<?xml version="1.0" standalone="no"?>
<!DOCTYPE svg PUBLIC "-//W3C//DTD SVG 20010904//EN"
 "http://www.w3.org/TR/2001/REC-SVG-20010904/DTD/svg10.dtd">
<svg version="1.0" xmlns="http://www.w3.org/2000/svg"
 width="512.000000pt" height="512.000000pt" viewBox="0 0 512.000000 512.000000"
 preserveAspectRatio="xMidYMid meet">

<g transform="translate(0.000000,512.000000) scale(0.100000,-0.100000)"
fill="#000000" stroke="none">
<path d="M3092 3307 l-1392 -1392 -112 -1 c-129 0 -206 -17 -315 -69 -114 -53
-146 -80 -410 -337 -136 -132 -384 -365 -551 -516 -166 -151 -302 -278 -302
-282 0 -3 87 -34 193 -68 537 -173 1055 -251 1402 -212 325 37 523 157 644
389 61 118 83 206 85 344 l2 118 1392 1392 1392 1392 -318 318 -317 317 -1393
-1393z m1498 858 l105 -105 -843 -843 -842 -842 -107 108 -108 107 840 840
c462 462 842 840 845 840 3 0 52 -47 110 -105z m-2082 -2292 l-293 -293 -20
27 c-34 49 -115 130 -156 159 l-40 28 293 293 293 293 107 -107 108 -108 -292
-292z m-819 -268 c177 -42 309 -183 342 -364 32 -179 -62 -376 -215 -451 -199
-97 -589 -91 -1081 16 -66 15 -123 30 -128 33 -4 4 50 61 120 126 71 65 235
222 366 348 198 189 249 234 301 258 105 49 189 59 295 34z"/>
</g>
</svg>
