<?xml version="1.0" standalone="no"?>
<!DOCTYPE svg PUBLIC "-//W3C//DTD SVG 20010904//EN"
 "http://www.w3.org/TR/2001/REC-SVG-20010904/DTD/svg10.dtd">
<svg version="1.0" xmlns="http://www.w3.org/2000/svg"
 width="200.000000pt" height="200.000000pt" viewBox="0 0 200.000000 200.000000"
 preserveAspectRatio="xMidYMid meet">

<g transform="translate(0.000000,200.000000) scale(0.100000,-0.100000)"
fill="#000000" stroke="none">
<path d="M1398 1888 c-8 -7 -110 -139 -226 -293 l-210 -280 -288 -150 c-158
-82 -296 -157 -305 -165 -11 -9 -65 -170 -143 -428 -69 -228 -126 -419 -126
-426 0 -7 9 -21 20 -31 20 -18 31 -15 443 109 285 87 427 134 439 147 9 11 84
149 167 307 l150 287 291 218 c230 172 290 222 290 240 0 16 -65 87 -228 250
-125 125 -234 227 -243 227 -8 0 -22 -6 -31 -12z m366 -459 c-2 -4 -110 -88
-240 -185 l-235 -178 -111 111 -112 112 149 198 c81 109 164 218 183 241 l35
44 168 -168 c92 -92 166 -171 163 -175z m-578 -504 c-18 -33 -84 -155 -145
-272 l-112 -212 -47 -15 c-89 -29 -544 -166 -550 -166 -4 0 65 72 153 160 143
143 163 160 193 160 43 0 102 55 102 94 0 57 -47 106 -100 106 -50 0 -100 -51
-100 -102 0 -17 -44 -67 -161 -183 -89 -88 -159 -152 -155 -142 3 11 43 139
87 285 45 147 85 273 89 280 4 8 128 78 276 157 l269 143 117 -116 117 -116
-33 -61z"/>
</g>
</svg>
