<?xml version="1.0" standalone="no"?>
<!DOCTYPE svg PUBLIC "-//W3C//DTD SVG 20010904//EN"
 "http://www.w3.org/TR/2001/REC-SVG-20010904/DTD/svg10.dtd">
<svg version="1.0" xmlns="http://www.w3.org/2000/svg"
 width="512.000000pt" height="512.000000pt" viewBox="0 0 512.000000 512.000000"
 preserveAspectRatio="xMidYMid meet">

<g transform="translate(0.000000,512.000000) scale(0.100000,-0.100000)"
fill="#000000" stroke="none">
<path d="M1378 4790 c-123 -22 -233 -82 -308 -168 -53 -60 -115 -186 -141
-287 -11 -44 -23 -132 -26 -195 l-6 -115 -38 -43 c-97 -111 -64 -286 68 -360
17 -10 57 -163 45 -173 -4 -3 -50 -21 -102 -39 -658 -228 -969 -587 -840 -970
88 -262 415 -516 876 -679 l91 -33 -24 -96 c-84 -329 -96 -680 -31 -892 62
-201 189 -337 366 -390 103 -31 285 -25 417 14 223 67 482 221 752 449 l83 69
37 -32 c353 -296 622 -453 864 -503 118 -25 183 -29 266 -17 97 15 141 32 225
87 105 69 181 177 226 323 62 203 55 535 -19 843 -12 48 -20 89 -18 91 2 2 49
18 104 36 129 42 353 144 450 205 377 234 512 545 365 839 -22 45 -62 106 -89
138 -34 40 -50 68 -55 98 -9 59 -28 92 -81 138 -52 46 -117 67 -175 58 -35 -5
-54 1 -157 53 -65 32 -175 80 -245 106 -74 28 -128 53 -128 61 0 7 11 59 25
115 48 201 68 376 62 564 -6 197 -24 284 -87 410 -71 144 -172 233 -315 278
-102 31 -255 29 -387 -7 -237 -63 -496 -212 -763 -437 l-105 -89 -105 89
c-268 226 -530 376 -762 436 -107 28 -242 39 -315 25z m270 -260 c140 -39 322
-136 500 -267 89 -66 232 -185 232 -193 0 -3 -42 -50 -93 -105 -51 -55 -138
-154 -194 -221 l-101 -121 -89 -7 c-138 -10 -385 -44 -541 -75 -78 -15 -144
-25 -146 -22 -2 3 -9 32 -16 64 -11 57 -11 60 13 85 37 38 67 110 67 159 0 68
-26 123 -87 180 l-56 53 7 82 c29 346 195 474 504 388z m2139 -5 c93 -46 152
-143 179 -297 29 -166 8 -428 -55 -672 -10 -43 -22 -80 -25 -83 -2 -3 -53 7
-113 21 -140 33 -345 70 -505 92 l-126 16 -95 117 c-52 64 -143 168 -201 231
-58 63 -106 117 -106 120 0 3 35 35 77 70 406 341 767 484 970 385z m-1103
-755 c64 -69 116 -128 116 -131 0 -6 -449 -1 -472 4 -4 1 46 59 110 129 64 70
120 127 124 125 3 -1 58 -58 122 -127z m86 -380 c102 -5 199 -12 216 -15 25
-4 44 -24 111 -118 111 -156 149 -213 245 -373 97 -159 178 -307 178 -323 0
-13 -116 -222 -193 -349 -72 -117 -183 -283 -263 -393 l-63 -86 -183 -7 c-167
-6 -523 5 -658 20 -63 7 -58 1 -215 233 -141 208 -345 552 -345 582 0 45 288
515 452 736 l67 92 63 4 c141 8 414 6 588 -3z m-980 -35 c0 -3 -36 -59 -80
-125 -44 -65 -117 -182 -164 -259 l-83 -141 -56 133 c-62 150 -121 307 -115
312 6 6 221 47 338 65 127 20 160 23 160 15z m1705 -51 c85 -15 286 -59 312
-68 12 -5 -40 -153 -112 -319 l-37 -87 -85 141 c-46 77 -115 187 -153 245 -39
57 -70 106 -70 109 0 4 12 4 28 1 15 -3 68 -13 117 -22z m-2396 -229 c54 -146
88 -228 168 -396 l55 -116 -60 -130 c-62 -134 -131 -299 -172 -411 -18 -49
-26 -62 -39 -57 -9 4 -57 22 -108 40 -221 81 -434 206 -556 327 -182 180 -190
356 -22 523 101 102 249 192 445 274 106 43 213 80 228 78 8 -1 35 -60 61
-132z m3058 50 c54 -20 141 -56 193 -81 l95 -45 1 -57 c2 -99 61 -180 158
-217 45 -17 87 -17 166 1 22 5 29 -1 56 -48 125 -210 14 -407 -336 -600 -112
-62 -402 -174 -420 -163 -4 3 -11 17 -15 32 -12 51 -136 356 -197 486 l-60
128 60 129 c34 71 92 205 129 299 37 94 68 171 70 171 1 0 46 -16 100 -35z
m-2612 -970 c43 -71 109 -176 147 -233 38 -56 71 -109 74 -116 4 -11 -22 -9
-123 9 -132 24 -330 69 -338 77 -5 4 65 191 105 283 12 28 28 65 36 84 8 19
16 32 18 30 2 -2 38 -62 81 -134z m2172 0 c58 -139 118 -304 112 -309 -11 -9
-463 -86 -504 -86 -3 0 45 75 105 166 61 92 136 211 167 265 32 54 60 95 64
91 4 -4 29 -61 56 -127z m-2242 -554 c77 -16 208 -39 290 -51 83 -11 164 -23
181 -26 26 -4 52 -29 141 -137 61 -72 151 -177 202 -231 50 -55 91 -102 91
-105 -2 -18 -262 -218 -381 -292 -204 -127 -341 -179 -489 -186 -94 -5 -111
-3 -158 17 -103 44 -170 150 -199 315 -31 177 1 500 72 742 3 9 17 8 57 -3 29
-8 116 -27 193 -43z m2449 -68 c34 -152 47 -250 53 -393 12 -302 -58 -485
-209 -550 -47 -20 -64 -22 -158 -17 -148 7 -285 59 -489 186 -119 74 -379 274
-381 292 0 3 45 55 101 115 55 60 141 159 191 220 l91 111 126 12 c164 15 380
46 517 75 60 13 116 24 125 25 12 1 20 -18 33 -76z m-1241 -53 c100 0 107 -1
98 -17 -5 -10 -57 -67 -115 -128 l-106 -110 -101 105 c-56 58 -110 118 -122
134 l-21 29 130 -6 c71 -4 178 -7 237 -7z"/>
<path d="M2477 3000 c-126 -22 -257 -122 -316 -242 -145 -298 68 -641 399
-641 331 0 544 343 399 641 -61 124 -189 220 -325 242 -67 11 -89 11 -157 0z"/>
</g>
</svg>
