<?xml version="1.0" encoding="UTF-8"?><svg id="Layer_2" xmlns="http://www.w3.org/2000/svg" viewBox="0 0 228.44 193.43"><defs><style>.cls-1{fill#69a8d8;}</style></defs><g id="Layer_1-2"><g><path class="cls-1" d="M51.58,0h3.73c.14,.05,.29,.14,.43,.15,6.1,.52,11.7,2.64,17.1,5.35,9.97,4.99,18.77,11.66,27.09,19,3.32,2.93,6.53,5.98,9.76,8.95,3.24-2.81,6.44-5.69,9.75-8.45,8.34-6.95,17.15-13.22,27.04-17.82,5.84-2.71,11.87-4.77,18.4-4.95,9.45-.27,16.83,4.51,20.12,13.07,1.43,3.74,1.97,7.65,2.04,11.64,.13,8.04-1.44,15.82-3.72,23.48-1.19,4.01-2.59,7.95-3.91,11.97,.36,.1,.77,.22,1.18,.32,9.14,2.36,18.09,5.25,26.54,9.54,5.74,2.92,11.1,6.38,15.44,11.25,7.52,8.43,7.84,18.96,.82,27.66-3.32,4.11-7.47,7.21-11.98,9.87-9,5.31-18.79,8.63-28.81,11.33-2.04,.55-4.1,1.04-6.24,1.58,.16,.51,.27,.91,.41,1.3,2.66,7.26,4.87,14.64,6.1,22.29,.99,6.13,1.36,12.27,.13,18.42-2.28,11.4-10.84,17.66-22.37,16.39-5.91-.65-11.36-2.73-16.62-5.37-9.58-4.8-18.05-11.2-26.12-18.17-2.49-2.15-4.9-4.39-7.39-6.63-.47,.43-.9,.82-1.32,1.21-9.12,8.36-18.73,16.1-29.58,22.13-7.09,3.94-14.47,7.16-22.7,7.83-10.41,.85-18.66-4.2-21.95-14.01-2.29-6.85-2-13.85-.96-20.85,1.21-8.21,3.63-16.1,6.54-23.85,.42-1.1,.83-2.21,1.26-3.32-2.72-.9-5.35-1.72-7.94-2.64-8.32-2.99-16.35-6.56-23.3-12.16-4.33-3.49-7.91-7.57-9.59-13.02-.41-1.33-.63-2.71-.96-4.07l.09-3.63c.66-2.17,1.1-4.44,2.04-6.48,2.52-5.46,6.89-9.31,11.76-12.62,7.05-4.8,14.86-8.01,22.9-10.69,2.01-.67,4.05-1.27,6.11-1.92-.2-.52-.36-.96-.54-1.39-3.78-9.46-6.94-19.1-8.38-29.22-.85-5.99-1.11-11.99,.36-17.94,1.73-6.96,5.58-12.15,12.61-14.48C48.45,.54,50.04,.34,51.58,0Zm59.02,131.21v-.27c5.13,0,10.25,.03,15.37-.04,.54,0,1.24-.42,1.6-.87,7.62-9.23,14.66-18.88,21.15-28.93,.46-.72,.49-1.21,.04-1.96-7.03-11.64-14.7-22.83-23.14-33.5-.53-.67-1.06-.98-1.93-1.01-9.61-.23-19.22-.17-28.82,.51-1.02,.07-2.39,.78-3.04,1.57-7.41,9.03-14.24,18.48-20.56,28.3-.64,.99-.64,2.26-.02,3.26,6.76,10.8,14.16,21.15,22.16,31.06,.5,.62,1.57,1.16,2.37,1.2,4.94,.24,9.88,.45,14.83,.67ZM51.87,61.8c11.93-2.73,23.63-4.44,35.42-5.51,.61-.05,1.31-.47,1.73-.93,4.4-4.76,8.76-9.56,13.13-14.35,.25-.28,.49-.56,.9-1.02-.34-.25-.65-.43-.91-.66-4.46-3.99-8.8-8.11-13.38-11.94-6.63-5.53-13.69-10.47-21.53-14.18-3.22-1.52-6.51-2.8-10-3.43-6.64-1.2-13,3.33-14.06,9.99-.23,1.46-.36,2.94-.39,4.39-.16,6.93,1.23,13.68,3.24,20.26,1.78,5.81,3.87,11.52,5.85,17.36Zm-.83,71.92c-.1,.2-.18,.33-.24,.47-2.78,6.92-5.14,13.98-6.64,21.3-1.22,5.96-2,11.95-.97,18.04,1.29,7.66,5.75,11.14,13.45,10.42,5.31-.5,10.15-2.47,14.85-4.82,8.91-4.46,16.89-10.28,24.49-16.66,2.67-2.24,5.25-4.58,7.89-6.89-.19-.25-.27-.38-.37-.49-4.46-4.97-8.91-9.96-13.39-14.9-.34-.38-.96-.65-1.48-.71-1.92-.24-3.87-.29-5.79-.57-8.1-1.17-16.19-2.37-24.28-3.63-2.52-.39-5-1.02-7.52-1.55ZM170,60.18c.26-.67,.55-1.39,.82-2.12,3.43-9.36,6.3-18.85,6.7-28.9,.16-3.91-.13-7.77-1.75-11.41-1.46-3.29-3.91-5.48-7.53-5.86-2.28-.24-4.67-.2-6.93,.18-5.61,.93-10.71,3.36-15.64,6.1-9.73,5.41-18.41,12.23-26.67,19.64-.92,.82-1.81,1.67-2.76,2.54,.41,.46,.74,.83,1.07,1.2,3.48,3.97,7.06,7.86,10.4,11.95,1.29,1.58,2.65,2.1,4.6,2.24,6.66,.48,13.31,1.03,19.94,1.81,5.89,.69,11.73,1.72,17.75,2.63Zm2.69,64.85c.15,.05,.19,.08,.22,.07,10.5-2.38,20.77-5.47,30.39-10.41,4.58-2.35,8.91-5.08,12.34-9,1.55-1.77,2.77-3.74,3.24-6.1,.69-3.5-.67-6.4-2.77-9.03-2.94-3.68-6.77-6.26-10.82-8.52-9.05-5.04-18.84-8.12-28.82-10.68-.77-.2-1.01,.16-1.27,.75-4.22,9.37-9.09,18.38-14.42,27.16-.36,.59-.39,1.33-.07,1.94,3.6,7,7.16,14.02,10.72,21.04,.47,.93,.86,1.89,1.25,2.77Zm-5.56,10.88c-.83,.1-.9,.09-1.68,.28-1.25,.3-2.52,.54-3.79,.73-9.93,1.45-19.94,2.14-29.92,3.16-.16,.02-.31,.09-.42,.21-4.05,4.38-8.03,8.82-12.07,13.21-.62,.68-1.46,1.16-2.31,1.82,3.19,2.82,5.93,5.34,8.78,7.74,7.18,6.08,14.73,11.64,23.2,15.84,4.19,2.07,8.51,3.73,13.22,4.22,5.66,.6,9.55-1.8,11.15-7.25,.64-2.17,.97-4.49,1.05-6.75,.25-7.29-1.29-14.34-3.33-21.29-1.18-4-2.57-7.94-3.87-11.92ZM46.77,72.87c-.2,.02-.32,0-.43,.03-8.97,2.57-17.72,5.68-25.68,10.65-5.24,3.27-9.93,7.21-11.81,14.09-.14,.51-.11,1.07,.1,1.56,1.5,3.59,4.21,7.05,7.34,9.71,5.08,4.31,11.06,7.14,17.23,9.51,3.93,1.52,7.94,2.82,11.93,4.22,1.09-2.04,.4-.12,3.23-12.63,.51-2.26,1.71-4.31,3.42-5.86,6.89-6.26,7.6-6.78,6.62-8.59-3.6-6.69-7.16-13.4-10.71-20.11-.45-.85-.83-1.73-1.24-2.58Zm90.83-7.46c5.81,8.53,11.58,17,17.38,25.5,4.09-7.01,7.89-14.22,11.26-21.78-9.61-1.82-19.12-3.04-28.64-3.72Zm-72.98,40.29c-3.32,6.38-6.61,12.72-9.98,19.2,8.95,2.08,17.71,3.51,26.56,4.48-5.52-7.88-10.98-15.68-16.58-23.68Zm15.1-39.17c-3.74,.15-21.61,3.07-23.8,4.14,2.95,5.65,5.9,11.29,8.84,16.92,5.08-7.16,10.04-14.13,14.96-21.06Zm59.99,63.72c7.98-1.03,15.76-2.03,23.88-3.08-3.08-6.2-5.98-12.03-8.88-17.88-5.02,7.02-9.89,13.83-15,20.96Zm-37.01,10.19c2.67,2.87,5.25,5.64,7.91,8.5,2.58-2.72,5.06-5.32,7.54-7.92l-.25-.58h-15.2Zm13.83-85.86c-2.31-2.55-4.62-5.11-7.01-7.76-2.7,2.84-5.31,5.6-7.94,8.37h14.68l.27-.61Z"/><path class="cls-1" d="M114.3,79.67c10.34,.01,18.57,8.56,18.12,19-.38,8.78-7.2,16.17-15.93,17.21-11.06,1.31-20.43-7.33-20.41-18.16,.02-10,8.15-18.06,18.21-18.05Z"/></g></g></svg>