<?xml version="1.0" standalone="no"?>
<!DOCTYPE svg PUBLIC "-//W3C//DTD SVG 20010904//EN"
 "http://www.w3.org/TR/2001/REC-SVG-20010904/DTD/svg10.dtd">
<svg version="1.0" xmlns="http://www.w3.org/2000/svg"
 width="458.000000pt" height="545.000000pt" viewBox="0 0 458.000000 545.000000"
 preserveAspectRatio="xMidYMid meet">

<g transform="translate(0.000000,545.000000) scale(0.100000,-0.100000)"
fill="#000000" stroke="none">
<path d="M3539 5200 c-275 -68 -500 -282 -575 -550 l-17 -60 -1443 0 -1444 0
0 -2230 0 -2230 1909 0 1910 0 3 704 c2 387 6 708 10 712 4 4 29 1 55 -6 139
-38 235 -132 257 -252 4 -20 14 -39 22 -42 9 -3 78 -6 155 -6 l140 0 -3 1663
-4 1662 -22 73 c-88 290 -311 499 -602 567 -90 21 -256 18 -351 -5z m354 -320
c119 -45 235 -157 278 -270 19 -50 22 -87 31 -375 10 -340 5 -2436 -6 -2454
-5 -7 -19 -5 -44 8 -20 10 -75 31 -122 47 -82 27 -91 28 -300 29 -232 0 -273
-7 -416 -70 l-53 -24 -7 22 c-4 12 -8 630 -8 1372 l1 1350 22 64 c56 160 182
276 344 317 74 19 208 11 280 -16z m-963 -2125 l0 -1515 144 0 c155 0 176 6
176 53 0 41 47 123 95 165 45 39 112 71 182 86 l31 7 7 -63 c3 -35 5 -283 3
-553 l-3 -490 -1595 0 -1595 0 -3 1913 -2 1912 1280 0 1280 0 0 -1515z"/>
<path d="M1535 3940 c-222 -48 -414 -217 -485 -430 -28 -81 -37 -226 -20 -312
32 -165 143 -328 286 -418 59 -37 193 -90 228 -90 9 0 16 -4 16 -8 0 -4 -44
-18 -97 -30 -285 -65 -513 -225 -707 -496 l-56 -78 0 -334 0 -334 955 0 955 0
0 328 0 327 -57 85 c-32 47 -103 131 -158 186 -160 163 -327 260 -534 311 -61
15 -111 30 -111 33 0 4 28 15 63 24 389 108 581 531 405 895 -23 48 -57 91
-123 157 -97 98 -166 139 -280 169 -72 19 -225 27 -280 15z m225 -326 c76 -23
171 -118 194 -194 20 -68 20 -142 0 -210 -22 -74 -116 -169 -193 -195 -106
-35 -235 -11 -319 60 -83 70 -127 201 -103 308 21 97 111 199 204 234 46 17
155 15 217 -3z m42 -1273 c136 -35 260 -111 379 -231 103 -105 109 -121 109
-269 l0 -121 -640 0 -640 0 0 123 0 123 64 77 c213 256 474 363 728 298z"/>
<path d="M700 925 l0 -155 955 0 955 0 0 155 0 155 -955 0 -955 0 0 -155z"/>
</g>
</svg>
